<?xml version="1.0" encoding="UTF-8"?>
<svg id="_レイヤー_1" data-name="レイヤー 1" xmlns="http://www.w3.org/2000/svg" viewBox="0 0 512 93.6">
  <defs>
    <style>
      .cls-1 {
        fill: #171c61;
      }

      .cls-1, .cls-2 {
        stroke-width: 0px;
      }

      .cls-2 {
        fill: #036eb7;
      }

      .cls-3 {
        fill: none;
        stroke: #fff;
        stroke-width: 3px;
      }
    </style>
  </defs>
  <g>
    <rect class="cls-2" x="17.85" y="64.85" width="494.15" height=".75"/>
    <rect class="cls-2" x="17.85" y="68.92" width="494.15" height=".75"/>
    <rect class="cls-2" x="17.85" y="73" width="494.15" height=".75"/>
    <rect class="cls-2" x="17.85" y="60.77" width="494.15" height=".75"/>
    <rect class="cls-2" x="17.85" y="77.07" width="494.15" height=".75"/>
  </g>
  <g>
    <path class="cls-1" d="m29.22,10.11c.86-2.91,2.31-5.32,4.33-7.24,2.02-1.91,4.81-2.87,8.37-2.87h16.9c3.61,0,6.5.96,8.65,2.87,2.16,1.92,3.67,4.33,4.53,7.24l6.85,31.7-8.47,14.81-3.8-13.59h-25.64l6.29-13.59h15.55l-4.37-15.85h-15.69l-21.26,59.95L0,93.6,29.22,10.11Z"/>
    <path class="cls-1" d="m85.86,0h13.99v20.87h39.31V0h13.99v56.62h-13.99v-22.16h-39.31v22.16l-13.99,20.83V0Z"/>
    <path class="cls-1" d="m161.24,43.03h54.11v-8.57h-44c-1.46,0-2.8-.27-4.04-.81-1.24-.54-2.31-1.25-3.19-2.14-.89-.89-1.59-1.94-2.1-3.15-.51-1.21-.77-2.47-.77-3.76v-14.48c0-1.46.27-2.8.81-4.04.54-1.24,1.25-2.31,2.14-3.2.89-.89,1.94-1.59,3.15-2.1,1.21-.51,2.47-.77,3.76-.77h51.92v13.59h-47.8v7.28h44c1.46,0,2.8.27,4.04.81,1.24.54,2.31,1.25,3.19,2.14.89.89,1.59,1.94,2.1,3.15.51,1.21.77,2.47.77,3.76v15.77c0,1.46-.27,2.8-.81,4.04-.54,1.24-1.25,2.31-2.14,3.2-.89.89-1.94,1.59-3.15,2.1-1.21.51-2.47.77-3.76.77h-58.23v-13.59Z"/>
    <path class="cls-1" d="m236.62,25.69c0-1.53.53-2.82,1.59-3.86,1.06-1.04,2.34-1.56,3.82-1.56h33.89c1.48,0,2.76.52,3.82,1.56,1.06,1.04,1.59,2.32,1.59,3.86v12.16c0,1.53-.53,2.82-1.59,3.86-1.06,1.04-2.34,1.56-3.82,1.56h-26.7v3.71h31.89v9.64h-39.08c-1.48,0-2.76-.52-3.82-1.56-1.06-1.04-1.59-2.32-1.59-3.86v-25.51Zm32.11,8.01v-3.78h-19.5v3.78h19.5Z"/>
    <path class="cls-1" d="m288.15,46.98h30.26v-3.71h-25.73c-1.48,0-2.76-.52-3.82-1.56-1.06-1.04-1.59-2.32-1.59-3.86v-12.16c0-1.53.53-2.82,1.59-3.86,1.06-1.04,2.34-1.56,3.82-1.56h36.34v9.64h-29.14v3.71h25.73c1.48,0,2.76.52,3.82,1.56,1.06,1.04,1.59,2.32,1.59,3.86v12.16c0,1.53-.53,2.82-1.59,3.86-1.06,1.04-2.34,1.56-3.82,1.56h-37.45v-9.64Z"/>
    <path class="cls-1" d="m337.84,46.98h30.26v-3.71h-25.73c-1.48,0-2.76-.52-3.82-1.56-1.06-1.04-1.59-2.32-1.59-3.86v-12.16c0-1.53.53-2.82,1.59-3.86,1.06-1.04,2.34-1.56,3.82-1.56h36.34v9.64h-29.14v3.71h25.73c1.48,0,2.76.52,3.82,1.56,1.06,1.04,1.59,2.32,1.59,3.86v12.16c0,1.53-.53,2.82-1.59,3.86-1.06,1.04-2.34,1.56-3.82,1.56h-37.45v-9.64Z"/>
    <path class="cls-1" d="m386.62,20.28h7.93c1.48,0,2.76.52,3.82,1.56,1.06,1.04,1.59,2.32,1.59,3.86v30.92h-12.61v-24.1m-.74-27.81h12.61v12.31h-12.61V4.71Z"/>
    <path class="cls-1" d="m409.14,25.69c0-1.53.53-2.82,1.59-3.86,1.06-1.04,2.34-1.56,3.82-1.56h32.85c1.48,0,2.76.52,3.82,1.56,1.06,1.04,1.59,2.32,1.59,3.86v25.51c0,1.53-.53,2.82-1.59,3.86-1.06,1.04-2.34,1.56-3.82,1.56h-32.85c-1.48,0-2.76-.52-3.82-1.56-1.06-1.04-1.59-2.32-1.59-3.86v-25.51Zm31.07,18.69v-11.86h-18.46v11.86h18.46Z"/>
    <path class="cls-1" d="m459.22,25.69c0-1.48.52-2.76,1.56-3.82,1.04-1.06,2.32-1.59,3.86-1.59h32.85c1.53,0,2.82.53,3.86,1.59,1.04,1.06,1.56,2.34,1.56,3.82v30.92h-12.61v-24.1h-18.46v24.1h-12.61v-30.92Z"/>
  </g>
  <g>
    <g>
      <path class="cls-2" d="m165.9,72.08l-.93.29-.86-2.05h-3.96l-.94,2.05-1.71-.56,3.66-7.73h1.4l3.34,8Zm-2.06-2.45l-1.62-3.83c-.4.84-.99,2.11-1.77,3.83h3.39Z"/>
      <path class="cls-2" d="m178.48,72.22h-1.72v-4.07h-3.4v4.07h-1.72v-8.15h1.72v3.44h3.4v-3.44h1.72v8.15Z"/>
      <path class="cls-2" d="m191.55,70c0,.87-.38,1.5-1.13,1.9-.59.31-1.36.47-2.31.47-1.5,0-2.76-.53-3.76-1.59l.45-.45c.93.76,1.98,1.13,3.16,1.13.49,0,.9-.1,1.23-.29.41-.22.62-.56.62-1.01,0-.5-.46-.88-1.38-1.13-1.61-.45-2.46-.7-2.54-.74-.92-.43-1.38-1.1-1.38-2.02,0-.87.43-1.5,1.28-1.88.63-.29,1.43-.44,2.4-.44,1.24,0,2.31.4,3.2,1.2l-.5.51c-.35-.29-.78-.52-1.28-.7-.49-.18-.96-.27-1.4-.27-.51,0-.94.08-1.3.25-.45.23-.68.57-.68,1.03,0,.51.33.85.98,1.04.63.16,1.26.31,1.9.47.77.21,1.34.48,1.72.81.49.43.74,1.01.74,1.73Z"/>
      <path class="cls-2" d="m208.68,68.77l-3.56.42,1.13,3.84-1.84.55c-.4-1.34-.81-2.72-1.24-4.15l-4.5.55-.07-.73,4.37-.54c-.25-.88-.52-1.77-.81-2.67l-3.23.47-.1-.64,3.15-.43c-.21-.66-.41-1.32-.61-1.99l1.88-.48c.24.76.46,1.48.66,2.17l3.46-.49.1.66-3.36.48.79,2.72,3.71-.45.07.73Z"/>
      <path class="cls-2" d="m222.91,66.39c0,.51-.37,1.26-1.1,2.24-.76,1.01-1.39,1.52-1.88,1.52-.1,0-.14-.07-.14-.2,0-.06.04-.16.11-.31.45-.81.77-1.73.95-2.74l-3.22.61c.66,2.11,1.24,3.94,1.75,5.5l-1.68.47-1.8-5.62-2.06.39-.13-.64,2-.38-.78-2.31,1.75-.38c.26.84.51,1.62.74,2.36l4.35-.84c.36-.06.55-.1.58-.1.12,0,.24.04.37.13.12.1.18.2.18.31Z"/>
      <path class="cls-2" d="m237.95,66.48c0,.14-.19.62-.56,1.44-1.38,3.03-3.6,4.93-6.67,5.69-.16.04-.29.06-.38.06-.19,0-.29-.06-.29-.19,0-.06.08-.15.25-.26,1.37-.89,2.46-1.83,3.28-2.83.92-1.11,1.59-2.38,2-3.83h-7.61v-.66h9.45c.35,0,.52.19.52.57Zm-.72-2.15c-.44.25-.91.38-1.42.38-.41,0-.96-.17-1.66-.51-.71-.33-1.28-.5-1.72-.5-1.12,0-2.16.34-3.11,1.01l-.43-.56c1.12-.75,2.33-1.12,3.61-1.12.57,0,1.23.17,1.97.5.75.33,1.19.5,1.34.5.29,0,.67-.11,1.15-.33l.27.63Z"/>
      <path class="cls-2" d="m252.44,65.15c-.11.25-.32.87-.62,1.85-.52,1.72-1.31,3.07-2.36,4.07-.56.52-1.25,1.01-2.08,1.44-.95.51-1.75.76-2.39.76-.18,0-.27-.06-.27-.17,0-.05.08-.12.24-.2,2.9-1.7,4.58-4.15,5.05-7.35h-3.78c-.85,1.32-1.79,2.26-2.82,2.83-.17.09-.31.13-.42.13-.13,0-.19-.04-.19-.13,0-.06.02-.13.06-.19,1.17-1.63,2-3.35,2.51-5.15l2.02.33c-.24.55-.49,1.06-.75,1.53h5.49c.21,0,.32.08.32.25Z"/>
      <path class="cls-2" d="m267.23,65.06c-.11.22-.34.87-.68,1.93-.57,1.81-1.44,3.24-2.6,4.29-1.22,1.11-2.58,1.84-4.08,2.2-.38.09-.61.13-.69.13-.28,0-.42-.06-.42-.17,0-.05.09-.12.26-.23,3.31-1.86,5.22-4.46,5.74-7.79h-3.81c-.91,1.43-1.91,2.46-3.02,3.08-.14.07-.27.11-.41.11s-.2-.04-.2-.11c0-.09.02-.16.06-.2.68-.88,1.22-1.71,1.62-2.52.38-.78.73-1.72,1.04-2.82l2.02.33c-.21.52-.46,1.01-.73,1.47h5.52c.25,0,.37.1.37.29Zm-4.6,3.52c-.59.33-1.11.87-1.57,1.6-.19-.37-.42-.68-.68-.92-.19-.19-.5-.42-.93-.68.68-.36,1.22-.89,1.61-1.6.29.56.82,1.09,1.57,1.6Z"/>
      <path class="cls-2" d="m281.8,68.28h-9.71v-.68h9.71v.68Z"/>
      <path class="cls-2" d="m296.91,65.17h-1.8v7.49c0,.46-.26.69-.79.69-.48,0-.92-.04-1.34-.12-1.6-.26-2.82-.8-3.65-1.61-.18.16-.37.27-.55.33-.5.26-1.33.39-2.49.39.91-.64,1.83-1.8,2.76-3.5.84-1.57,1.62-2.52,2.34-2.88.45-.24,1.04-.38,1.77-.43v-.38h-6.26v-.67h6.26v-1.61h1.96v1.61h1.8v.67Zm-3.76,7.46v-6.41c-.62.52-1.17,1.27-1.66,2.25-.63,1.26-1.2,2.16-1.72,2.71.44.45,1.03.8,1.77,1.05.54.2,1.08.33,1.61.39Z"/>
      <path class="cls-2" d="m305.11,64.94c-.76.35-1.42.95-1.99,1.79-.4-.75-1.06-1.34-1.99-1.79.82-.38,1.48-.99,1.99-1.83.42.73,1.09,1.34,1.99,1.83Zm6.28-.38c-.84,2.31-2.05,4.2-3.61,5.67-1.44,1.35-3.24,2.37-5.4,3.07l-1.01-1.86c4.1-1.3,7.31-3.65,9.62-7.07l.42.2Z"/>
      <path class="cls-2" d="m318.87,69.64h-1.97v-6.32h1.97v6.32Zm6.05-2.42c0,3.01-1.3,4.99-3.9,5.95-.64.25-1.21.37-1.69.37-.18-.03-.27-.1-.27-.21,0-.08.12-.17.37-.27,2.35-1.07,3.53-3.02,3.53-5.83v-4.18h1.97v4.18Z"/>
      <path class="cls-2" d="m340.43,68.28h-9.71v-.68h9.71v.68Z"/>
      <path class="cls-2" d="m354.71,63.51c-.47.33-1,.91-1.6,1.74-.65.88-1.16,1.47-1.54,1.78.07.16.11.28.11.36v6h-1.97v-5.42c-2.08.68-3.28,1.01-3.61,1.01-.12,0-.23-.02-.33-.05,0-.12.1-.25.26-.38.19-.14.74-.45,1.65-.94,1.01-.53,1.82-1.05,2.42-1.55.76-.62,1.39-1.34,1.87-2.15h-1.47v-.64h3.98c.15,0,.23.08.23.24Z"/>
      <path class="cls-2" d="m370.31,70.2l-1.28,2.11c-2.08-1.22-4.12-3.06-6.14-5.54-.55.84-1.28,1.92-2.18,3.23l-1.23-1.36c.34-.22.8-.64,1.36-1.26.42-.48.85-.96,1.28-1.43.25-.27.52-.41.82-.41.22.03.9.53,2.03,1.49,1.55,1.33,3.33,2.38,5.34,3.16Zm-2.85-4.95c-.41.21-.72.53-.94.97-.17-.41-.48-.73-.95-.97.4-.21.72-.53.95-.95.19.37.51.69.94.95Zm1.78-.48c-.33.17-.62.52-.87,1.03-.16-.45-.46-.8-.89-1.03.37-.23.67-.58.89-1.05.1.21.23.41.39.57l.48.48Z"/>
      <path class="cls-2" d="m378.41,64.94c-.76.35-1.42.95-1.99,1.79-.4-.75-1.06-1.34-1.99-1.79.82-.38,1.48-.99,1.99-1.83.42.73,1.09,1.34,1.99,1.83Zm6.28-.38c-.84,2.31-2.05,4.2-3.61,5.67-1.44,1.35-3.24,2.37-5.4,3.07l-1.01-1.86c4.1-1.3,7.31-3.65,9.62-7.07l.42.2Z"/>
      <path class="cls-2" d="m399.43,69.45l-1.36,1.42c-1.6-1.88-3.44-3.37-5.52-4.47v6.97h-1.96v-10.46h1.96v2.58c2.74.79,5.03,2.11,6.88,3.97Z"/>
    </g>
    <g>
      <path class="cls-3" d="m165.9,72.08l-.93.29-.86-2.05h-3.96l-.94,2.05-1.71-.56,3.66-7.73h1.4l3.34,8Zm-2.06-2.45l-1.62-3.83c-.4.84-.99,2.11-1.77,3.83h3.39Z"/>
      <path class="cls-3" d="m178.48,72.22h-1.72v-4.07h-3.4v4.07h-1.72v-8.15h1.72v3.44h3.4v-3.44h1.72v8.15Z"/>
      <path class="cls-3" d="m191.55,70c0,.87-.38,1.5-1.13,1.9-.59.31-1.36.47-2.31.47-1.5,0-2.76-.53-3.76-1.59l.45-.45c.93.76,1.98,1.13,3.16,1.13.49,0,.9-.1,1.23-.29.41-.22.62-.56.62-1.01,0-.5-.46-.88-1.38-1.13-1.61-.45-2.46-.7-2.54-.74-.92-.43-1.38-1.1-1.38-2.02,0-.87.43-1.5,1.28-1.88.63-.29,1.43-.44,2.4-.44,1.24,0,2.31.4,3.2,1.2l-.5.51c-.35-.29-.78-.52-1.28-.7-.49-.18-.96-.27-1.4-.27-.51,0-.94.08-1.3.25-.45.23-.68.57-.68,1.03,0,.51.33.85.98,1.04.63.16,1.26.31,1.9.47.77.21,1.34.48,1.72.81.49.43.74,1.01.74,1.73Z"/>
      <path class="cls-3" d="m208.68,68.77l-3.56.42,1.13,3.84-1.84.55c-.4-1.34-.81-2.72-1.24-4.15l-4.5.55-.07-.73,4.37-.54c-.25-.88-.52-1.77-.81-2.67l-3.23.47-.1-.64,3.15-.43c-.21-.66-.41-1.32-.61-1.99l1.88-.48c.24.76.46,1.48.66,2.17l3.46-.49.1.66-3.36.48.79,2.72,3.71-.45.07.73Z"/>
      <path class="cls-3" d="m222.91,66.39c0,.51-.37,1.26-1.1,2.24-.76,1.01-1.39,1.52-1.88,1.52-.1,0-.14-.07-.14-.2,0-.06.04-.16.11-.31.45-.81.77-1.73.95-2.74l-3.22.61c.66,2.11,1.24,3.94,1.75,5.5l-1.68.47-1.8-5.62-2.06.39-.13-.64,2-.38-.78-2.31,1.75-.38c.26.84.51,1.62.74,2.36l4.35-.84c.36-.06.55-.1.58-.1.12,0,.24.04.37.13.12.1.18.2.18.31Z"/>
      <path class="cls-3" d="m237.95,66.48c0,.14-.19.62-.56,1.44-1.38,3.03-3.6,4.93-6.67,5.69-.16.04-.29.06-.38.06-.19,0-.29-.06-.29-.19,0-.06.08-.15.25-.26,1.37-.89,2.46-1.83,3.28-2.83.92-1.11,1.59-2.38,2-3.83h-7.61v-.66h9.45c.35,0,.52.19.52.57Zm-.72-2.15c-.44.25-.91.38-1.42.38-.41,0-.96-.17-1.66-.51-.71-.33-1.28-.5-1.72-.5-1.12,0-2.16.34-3.11,1.01l-.43-.56c1.12-.75,2.33-1.12,3.61-1.12.57,0,1.23.17,1.97.5.75.33,1.19.5,1.34.5.29,0,.67-.11,1.15-.33l.27.63Z"/>
      <path class="cls-3" d="m252.44,65.15c-.11.25-.32.87-.62,1.85-.52,1.72-1.31,3.07-2.36,4.07-.56.52-1.25,1.01-2.08,1.44-.95.51-1.75.76-2.39.76-.18,0-.27-.06-.27-.17,0-.05.08-.12.24-.2,2.9-1.7,4.58-4.15,5.05-7.35h-3.78c-.85,1.32-1.79,2.26-2.82,2.83-.17.09-.31.13-.42.13-.13,0-.19-.04-.19-.13,0-.06.02-.13.06-.19,1.17-1.63,2-3.35,2.51-5.15l2.02.33c-.24.55-.49,1.06-.75,1.53h5.49c.21,0,.32.08.32.25Z"/>
      <path class="cls-3" d="m267.23,65.06c-.11.22-.34.87-.68,1.93-.57,1.81-1.44,3.24-2.6,4.29-1.22,1.11-2.58,1.84-4.08,2.2-.38.09-.61.13-.69.13-.28,0-.42-.06-.42-.17,0-.05.09-.12.26-.23,3.31-1.86,5.22-4.46,5.74-7.79h-3.81c-.91,1.43-1.91,2.46-3.02,3.08-.14.07-.27.11-.41.11s-.2-.04-.2-.11c0-.09.02-.16.06-.2.68-.88,1.22-1.71,1.62-2.52.38-.78.73-1.72,1.04-2.82l2.02.33c-.21.52-.46,1.01-.73,1.47h5.52c.25,0,.37.1.37.29Zm-4.6,3.52c-.59.33-1.11.87-1.57,1.6-.19-.37-.42-.68-.68-.92-.19-.19-.5-.42-.93-.68.68-.36,1.22-.89,1.61-1.6.29.56.82,1.09,1.57,1.6Z"/>
      <path class="cls-3" d="m281.8,68.28h-9.71v-.68h9.71v.68Z"/>
      <path class="cls-3" d="m296.91,65.17h-1.8v7.49c0,.46-.26.69-.79.69-.48,0-.92-.04-1.34-.12-1.6-.26-2.82-.8-3.65-1.61-.18.16-.37.27-.55.33-.5.26-1.33.39-2.49.39.91-.64,1.83-1.8,2.76-3.5.84-1.57,1.62-2.52,2.34-2.88.45-.24,1.04-.38,1.77-.43v-.38h-6.26v-.67h6.26v-1.61h1.96v1.61h1.8v.67Zm-3.76,7.46v-6.41c-.62.52-1.17,1.27-1.66,2.25-.63,1.26-1.2,2.16-1.72,2.71.44.45,1.03.8,1.77,1.05.54.2,1.08.33,1.61.39Z"/>
      <path class="cls-3" d="m305.11,64.94c-.76.35-1.42.95-1.99,1.79-.4-.75-1.06-1.34-1.99-1.79.82-.38,1.48-.99,1.99-1.83.42.73,1.09,1.34,1.99,1.83Zm6.28-.38c-.84,2.31-2.05,4.2-3.61,5.67-1.44,1.35-3.24,2.37-5.4,3.07l-1.01-1.86c4.1-1.3,7.31-3.65,9.62-7.07l.42.2Z"/>
      <path class="cls-3" d="m318.87,69.64h-1.97v-6.32h1.97v6.32Zm6.05-2.42c0,3.01-1.3,4.99-3.9,5.95-.64.25-1.21.37-1.69.37-.18-.03-.27-.1-.27-.21,0-.08.12-.17.37-.27,2.35-1.07,3.53-3.02,3.53-5.83v-4.18h1.97v4.18Z"/>
      <path class="cls-3" d="m340.43,68.28h-9.71v-.68h9.71v.68Z"/>
      <path class="cls-3" d="m354.71,63.51c-.47.33-1,.91-1.6,1.74-.65.88-1.16,1.47-1.54,1.78.07.16.11.28.11.36v6h-1.97v-5.42c-2.08.68-3.28,1.01-3.61,1.01-.12,0-.23-.02-.33-.05,0-.12.1-.25.26-.38.19-.14.74-.45,1.65-.94,1.01-.53,1.82-1.05,2.42-1.55.76-.62,1.39-1.34,1.87-2.15h-1.47v-.64h3.98c.15,0,.23.08.23.24Z"/>
      <path class="cls-3" d="m370.31,70.2l-1.28,2.11c-2.08-1.22-4.12-3.06-6.14-5.54-.55.84-1.28,1.92-2.18,3.23l-1.23-1.36c.34-.22.8-.64,1.36-1.26.42-.48.85-.96,1.28-1.43.25-.27.52-.41.82-.41.22.03.9.53,2.03,1.49,1.55,1.33,3.33,2.38,5.34,3.16Zm-2.85-4.95c-.41.21-.72.53-.94.97-.17-.41-.48-.73-.95-.97.4-.21.72-.53.95-.95.19.37.51.69.94.95Zm1.78-.48c-.33.17-.62.52-.87,1.03-.16-.45-.46-.8-.89-1.03.37-.23.67-.58.89-1.05.1.21.23.41.39.57l.48.48Z"/>
      <path class="cls-3" d="m378.41,64.94c-.76.35-1.42.95-1.99,1.79-.4-.75-1.06-1.34-1.99-1.79.82-.38,1.48-.99,1.99-1.83.42.73,1.09,1.34,1.99,1.83Zm6.28-.38c-.84,2.31-2.05,4.2-3.61,5.67-1.44,1.35-3.24,2.37-5.4,3.07l-1.01-1.86c4.1-1.3,7.31-3.65,9.62-7.07l.42.2Z"/>
      <path class="cls-3" d="m399.43,69.45l-1.36,1.42c-1.6-1.88-3.44-3.37-5.52-4.47v6.97h-1.96v-10.46h1.96v2.58c2.74.79,5.03,2.11,6.88,3.97Z"/>
    </g>
    <g>
      <path class="cls-1" d="m165.9,72.08l-.93.29-.86-2.05h-3.96l-.94,2.05-1.71-.56,3.66-7.73h1.4l3.34,8Zm-2.06-2.45l-1.62-3.83c-.4.84-.99,2.11-1.77,3.83h3.39Z"/>
      <path class="cls-1" d="m178.48,72.22h-1.72v-4.07h-3.4v4.07h-1.72v-8.15h1.72v3.44h3.4v-3.44h1.72v8.15Z"/>
      <path class="cls-1" d="m191.55,70c0,.87-.38,1.5-1.13,1.9-.59.31-1.36.47-2.31.47-1.5,0-2.76-.53-3.76-1.59l.45-.45c.93.76,1.98,1.13,3.16,1.13.49,0,.9-.1,1.23-.29.41-.22.62-.56.62-1.01,0-.5-.46-.88-1.38-1.13-1.61-.45-2.46-.7-2.54-.74-.92-.43-1.38-1.1-1.38-2.02,0-.87.43-1.5,1.28-1.88.63-.29,1.43-.44,2.4-.44,1.24,0,2.31.4,3.2,1.2l-.5.51c-.35-.29-.78-.52-1.28-.7-.49-.18-.96-.27-1.4-.27-.51,0-.94.08-1.3.25-.45.23-.68.57-.68,1.03,0,.51.33.85.98,1.04.63.16,1.26.31,1.9.47.77.21,1.34.48,1.72.81.49.43.74,1.01.74,1.73Z"/>
      <path class="cls-1" d="m208.68,68.77l-3.56.42,1.13,3.84-1.84.55c-.4-1.34-.81-2.72-1.24-4.15l-4.5.55-.07-.73,4.37-.54c-.25-.88-.52-1.77-.81-2.67l-3.23.47-.1-.64,3.15-.43c-.21-.66-.41-1.32-.61-1.99l1.88-.48c.24.76.46,1.48.66,2.17l3.46-.49.1.66-3.36.48.79,2.72,3.71-.45.07.73Z"/>
      <path class="cls-1" d="m222.91,66.39c0,.51-.37,1.26-1.1,2.24-.76,1.01-1.39,1.52-1.88,1.52-.1,0-.14-.07-.14-.2,0-.06.04-.16.11-.31.45-.81.77-1.73.95-2.74l-3.22.61c.66,2.11,1.24,3.94,1.75,5.5l-1.68.47-1.8-5.62-2.06.39-.13-.64,2-.38-.78-2.31,1.75-.38c.26.84.51,1.62.74,2.36l4.35-.84c.36-.06.55-.1.58-.1.12,0,.24.04.37.13.12.1.18.2.18.31Z"/>
      <path class="cls-1" d="m237.95,66.48c0,.14-.19.62-.56,1.44-1.38,3.03-3.6,4.93-6.67,5.69-.16.04-.29.06-.38.06-.19,0-.29-.06-.29-.19,0-.06.08-.15.25-.26,1.37-.89,2.46-1.83,3.28-2.83.92-1.11,1.59-2.38,2-3.83h-7.61v-.66h9.45c.35,0,.52.19.52.57Zm-.72-2.15c-.44.25-.91.38-1.42.38-.41,0-.96-.17-1.66-.51-.71-.33-1.28-.5-1.72-.5-1.12,0-2.16.34-3.11,1.01l-.43-.56c1.12-.75,2.33-1.12,3.61-1.12.57,0,1.23.17,1.97.5.75.33,1.19.5,1.34.5.29,0,.67-.11,1.15-.33l.27.63Z"/>
      <path class="cls-1" d="m252.44,65.15c-.11.25-.32.87-.62,1.85-.52,1.72-1.31,3.07-2.36,4.07-.56.52-1.25,1.01-2.08,1.44-.95.51-1.75.76-2.39.76-.18,0-.27-.06-.27-.17,0-.05.08-.12.24-.2,2.9-1.7,4.58-4.15,5.05-7.35h-3.78c-.85,1.32-1.79,2.26-2.82,2.83-.17.09-.31.13-.42.13-.13,0-.19-.04-.19-.13,0-.06.02-.13.06-.19,1.17-1.63,2-3.35,2.51-5.15l2.02.33c-.24.55-.49,1.06-.75,1.53h5.49c.21,0,.32.08.32.25Z"/>
      <path class="cls-1" d="m267.23,65.06c-.11.22-.34.87-.68,1.93-.57,1.81-1.44,3.24-2.6,4.29-1.22,1.11-2.58,1.84-4.08,2.2-.38.09-.61.13-.69.13-.28,0-.42-.06-.42-.17,0-.05.09-.12.26-.23,3.31-1.86,5.22-4.46,5.74-7.79h-3.81c-.91,1.43-1.91,2.46-3.02,3.08-.14.07-.27.11-.41.11s-.2-.04-.2-.11c0-.09.02-.16.06-.2.68-.88,1.22-1.71,1.62-2.52.38-.78.73-1.72,1.04-2.82l2.02.33c-.21.52-.46,1.01-.73,1.47h5.52c.25,0,.37.1.37.29Zm-4.6,3.52c-.59.33-1.11.87-1.57,1.6-.19-.37-.42-.68-.68-.92-.19-.19-.5-.42-.93-.68.68-.36,1.22-.89,1.61-1.6.29.56.82,1.09,1.57,1.6Z"/>
      <path class="cls-1" d="m281.8,68.28h-9.71v-.68h9.71v.68Z"/>
      <path class="cls-1" d="m296.91,65.17h-1.8v7.49c0,.46-.26.69-.79.69-.48,0-.92-.04-1.34-.12-1.6-.26-2.82-.8-3.65-1.61-.18.16-.37.27-.55.33-.5.26-1.33.39-2.49.39.91-.64,1.83-1.8,2.76-3.5.84-1.57,1.62-2.52,2.34-2.88.45-.24,1.04-.38,1.77-.43v-.38h-6.26v-.67h6.26v-1.61h1.96v1.61h1.8v.67Zm-3.76,7.46v-6.41c-.62.52-1.17,1.27-1.66,2.25-.63,1.26-1.2,2.16-1.72,2.71.44.45,1.03.8,1.77,1.05.54.2,1.08.33,1.61.39Z"/>
      <path class="cls-1" d="m305.11,64.94c-.76.35-1.42.95-1.99,1.79-.4-.75-1.06-1.34-1.99-1.79.82-.38,1.48-.99,1.99-1.83.42.73,1.09,1.34,1.99,1.83Zm6.28-.38c-.84,2.31-2.05,4.2-3.61,5.67-1.44,1.35-3.24,2.37-5.4,3.07l-1.01-1.86c4.1-1.3,7.31-3.65,9.62-7.07l.42.2Z"/>
      <path class="cls-1" d="m318.87,69.64h-1.97v-6.32h1.97v6.32Zm6.05-2.42c0,3.01-1.3,4.99-3.9,5.95-.64.25-1.21.37-1.69.37-.18-.03-.27-.1-.27-.21,0-.08.12-.17.37-.27,2.35-1.07,3.53-3.02,3.53-5.83v-4.18h1.97v4.18Z"/>
      <path class="cls-1" d="m340.43,68.28h-9.71v-.68h9.71v.68Z"/>
      <path class="cls-1" d="m354.71,63.51c-.47.33-1,.91-1.6,1.74-.65.88-1.16,1.47-1.54,1.78.07.16.11.28.11.36v6h-1.97v-5.42c-2.08.68-3.28,1.01-3.61,1.01-.12,0-.23-.02-.33-.05,0-.12.1-.25.26-.38.19-.14.74-.45,1.65-.94,1.01-.53,1.82-1.05,2.42-1.55.76-.62,1.39-1.34,1.87-2.15h-1.47v-.64h3.98c.15,0,.23.08.23.24Z"/>
      <path class="cls-1" d="m370.31,70.2l-1.28,2.11c-2.08-1.22-4.12-3.06-6.14-5.54-.55.84-1.28,1.92-2.18,3.23l-1.23-1.36c.34-.22.8-.64,1.36-1.26.42-.48.85-.96,1.28-1.43.25-.27.52-.41.82-.41.22.03.9.53,2.03,1.49,1.55,1.33,3.33,2.38,5.34,3.16Zm-2.85-4.95c-.41.21-.72.53-.94.97-.17-.41-.48-.73-.95-.97.4-.21.72-.53.95-.95.19.37.51.69.94.95Zm1.78-.48c-.33.17-.62.52-.87,1.03-.16-.45-.46-.8-.89-1.03.37-.23.67-.58.89-1.05.1.21.23.41.39.57l.48.48Z"/>
      <path class="cls-1" d="m378.41,64.94c-.76.35-1.42.95-1.99,1.79-.4-.75-1.06-1.34-1.99-1.79.82-.38,1.48-.99,1.99-1.83.42.73,1.09,1.34,1.99,1.83Zm6.28-.38c-.84,2.31-2.05,4.2-3.61,5.67-1.44,1.35-3.24,2.37-5.4,3.07l-1.01-1.86c4.1-1.3,7.31-3.65,9.62-7.07l.42.2Z"/>
      <path class="cls-1" d="m399.43,69.45l-1.36,1.42c-1.6-1.88-3.44-3.37-5.52-4.47v6.97h-1.96v-10.46h1.96v2.58c2.74.79,5.03,2.11,6.88,3.97Z"/>
    </g>
  </g>
  <g>
    <rect class="cls-2" x="17.85" y="64.85" width="494.15" height=".75"/>
    <rect class="cls-2" x="17.85" y="68.92" width="494.15" height=".75"/>
    <rect class="cls-2" x="17.85" y="73" width="494.15" height=".75"/>
    <rect class="cls-2" x="17.85" y="60.77" width="494.15" height=".75"/>
    <rect class="cls-2" x="17.85" y="77.07" width="494.15" height=".75"/>
  </g>
  <g>
    <path class="cls-1" d="m29.22,10.11c.86-2.91,2.31-5.32,4.33-7.24,2.02-1.91,4.81-2.87,8.37-2.87h16.9c3.61,0,6.5.96,8.65,2.87,2.16,1.92,3.67,4.33,4.53,7.24l6.85,31.7-8.47,14.81-3.8-13.59h-25.64l6.29-13.59h15.55l-4.37-15.85h-15.69l-21.26,59.95L0,93.6,29.22,10.11Z"/>
    <path class="cls-1" d="m85.86,0h13.99v20.87h39.31V0h13.99v56.62h-13.99v-22.16h-39.31v22.16l-13.99,20.83V0Z"/>
    <path class="cls-1" d="m161.24,43.03h54.11v-8.57h-44c-1.46,0-2.8-.27-4.04-.81-1.24-.54-2.31-1.25-3.19-2.14-.89-.89-1.59-1.94-2.1-3.15-.51-1.21-.77-2.47-.77-3.76v-14.48c0-1.46.27-2.8.81-4.04.54-1.24,1.25-2.31,2.14-3.2.89-.89,1.94-1.59,3.15-2.1,1.21-.51,2.47-.77,3.76-.77h51.92v13.59h-47.8v7.28h44c1.46,0,2.8.27,4.04.81,1.24.54,2.31,1.25,3.19,2.14.89.89,1.59,1.94,2.1,3.15.51,1.21.77,2.47.77,3.76v15.77c0,1.46-.27,2.8-.81,4.04-.54,1.24-1.25,2.31-2.14,3.2-.89.89-1.94,1.59-3.15,2.1-1.21.51-2.47.77-3.76.77h-58.23v-13.59Z"/>
    <path class="cls-1" d="m236.62,25.69c0-1.53.53-2.82,1.59-3.86,1.06-1.04,2.34-1.56,3.82-1.56h33.89c1.48,0,2.76.52,3.82,1.56,1.06,1.04,1.59,2.32,1.59,3.86v12.16c0,1.53-.53,2.82-1.59,3.86-1.06,1.04-2.34,1.56-3.82,1.56h-26.7v3.71h31.89v9.64h-39.08c-1.48,0-2.76-.52-3.82-1.56-1.06-1.04-1.59-2.32-1.59-3.86v-25.51Zm32.11,8.01v-3.78h-19.5v3.78h19.5Z"/>
    <path class="cls-1" d="m288.15,46.98h30.26v-3.71h-25.73c-1.48,0-2.76-.52-3.82-1.56-1.06-1.04-1.59-2.32-1.59-3.86v-12.16c0-1.53.53-2.82,1.59-3.86,1.06-1.04,2.34-1.56,3.82-1.56h36.34v9.64h-29.14v3.71h25.73c1.48,0,2.76.52,3.82,1.56,1.06,1.04,1.59,2.32,1.59,3.86v12.16c0,1.53-.53,2.82-1.59,3.86-1.06,1.04-2.34,1.56-3.82,1.56h-37.45v-9.64Z"/>
    <path class="cls-1" d="m337.84,46.98h30.26v-3.71h-25.73c-1.48,0-2.76-.52-3.82-1.56-1.06-1.04-1.59-2.32-1.59-3.86v-12.16c0-1.53.53-2.82,1.59-3.86,1.06-1.04,2.34-1.56,3.82-1.56h36.34v9.64h-29.14v3.71h25.73c1.48,0,2.76.52,3.82,1.56,1.06,1.04,1.59,2.32,1.59,3.86v12.16c0,1.53-.53,2.82-1.59,3.86-1.06,1.04-2.34,1.56-3.82,1.56h-37.45v-9.64Z"/>
    <path class="cls-1" d="m386.62,20.28h7.93c1.48,0,2.76.52,3.82,1.56,1.06,1.04,1.59,2.32,1.59,3.86v30.92h-12.61v-24.1m-.74-27.81h12.61v12.31h-12.61V4.71Z"/>
    <path class="cls-1" d="m409.14,25.69c0-1.53.53-2.82,1.59-3.86,1.06-1.04,2.34-1.56,3.82-1.56h32.85c1.48,0,2.76.52,3.82,1.56,1.06,1.04,1.59,2.32,1.59,3.86v25.51c0,1.53-.53,2.82-1.59,3.86-1.06,1.04-2.34,1.56-3.82,1.56h-32.85c-1.48,0-2.76-.52-3.82-1.56-1.06-1.04-1.59-2.32-1.59-3.86v-25.51Zm31.07,18.69v-11.86h-18.46v11.86h18.46Z"/>
    <path class="cls-1" d="m459.22,25.69c0-1.48.52-2.76,1.56-3.82,1.04-1.06,2.32-1.59,3.86-1.59h32.85c1.53,0,2.82.53,3.86,1.59,1.04,1.06,1.56,2.34,1.56,3.82v30.92h-12.61v-24.1h-18.46v24.1h-12.61v-30.92Z"/>
  </g>
  <g>
    <g>
      <path class="cls-2" d="m165.9,72.08l-.93.29-.86-2.05h-3.96l-.94,2.05-1.71-.56,3.66-7.73h1.4l3.34,8Zm-2.06-2.45l-1.62-3.83c-.4.84-.99,2.11-1.77,3.83h3.39Z"/>
      <path class="cls-2" d="m178.48,72.22h-1.72v-4.07h-3.4v4.07h-1.72v-8.15h1.72v3.44h3.4v-3.44h1.72v8.15Z"/>
      <path class="cls-2" d="m191.55,70c0,.87-.38,1.5-1.13,1.9-.59.31-1.36.47-2.31.47-1.5,0-2.76-.53-3.76-1.59l.45-.45c.93.76,1.98,1.13,3.16,1.13.49,0,.9-.1,1.23-.29.41-.22.62-.56.62-1.01,0-.5-.46-.88-1.38-1.13-1.61-.45-2.46-.7-2.54-.74-.92-.43-1.38-1.1-1.38-2.02,0-.87.43-1.5,1.28-1.88.63-.29,1.43-.44,2.4-.44,1.24,0,2.31.4,3.2,1.2l-.5.51c-.35-.29-.78-.52-1.28-.7-.49-.18-.96-.27-1.4-.27-.51,0-.94.08-1.3.25-.45.23-.68.57-.68,1.03,0,.51.33.85.98,1.04.63.16,1.26.31,1.9.47.77.21,1.34.48,1.72.81.49.43.74,1.01.74,1.73Z"/>
      <path class="cls-2" d="m208.68,68.77l-3.56.42,1.13,3.84-1.84.55c-.4-1.34-.81-2.72-1.24-4.15l-4.5.55-.07-.73,4.37-.54c-.25-.88-.52-1.77-.81-2.67l-3.23.47-.1-.64,3.15-.43c-.21-.66-.41-1.32-.61-1.99l1.88-.48c.24.76.46,1.48.66,2.17l3.46-.49.1.66-3.36.48.79,2.72,3.71-.45.07.73Z"/>
      <path class="cls-2" d="m222.91,66.39c0,.51-.37,1.26-1.1,2.24-.76,1.01-1.39,1.52-1.88,1.52-.1,0-.14-.07-.14-.2,0-.06.04-.16.11-.31.45-.81.77-1.73.95-2.74l-3.22.61c.66,2.11,1.24,3.94,1.75,5.5l-1.68.47-1.8-5.62-2.06.39-.13-.64,2-.38-.78-2.31,1.75-.38c.26.84.51,1.62.74,2.36l4.35-.84c.36-.06.55-.1.58-.1.12,0,.24.04.37.13.12.1.18.2.18.31Z"/>
      <path class="cls-2" d="m237.95,66.48c0,.14-.19.62-.56,1.44-1.38,3.03-3.6,4.93-6.67,5.69-.16.04-.29.06-.38.06-.19,0-.29-.06-.29-.19,0-.06.08-.15.25-.26,1.37-.89,2.46-1.83,3.28-2.83.92-1.11,1.59-2.38,2-3.83h-7.61v-.66h9.45c.35,0,.52.19.52.57Zm-.72-2.15c-.44.25-.91.38-1.42.38-.41,0-.96-.17-1.66-.51-.71-.33-1.28-.5-1.72-.5-1.12,0-2.16.34-3.11,1.01l-.43-.56c1.12-.75,2.33-1.12,3.61-1.12.57,0,1.23.17,1.97.5.75.33,1.19.5,1.34.5.29,0,.67-.11,1.15-.33l.27.63Z"/>
      <path class="cls-2" d="m252.44,65.15c-.11.25-.32.87-.62,1.85-.52,1.72-1.31,3.07-2.36,4.07-.56.52-1.25,1.01-2.08,1.44-.95.51-1.75.76-2.39.76-.18,0-.27-.06-.27-.17,0-.05.08-.12.24-.2,2.9-1.7,4.58-4.15,5.05-7.35h-3.78c-.85,1.32-1.79,2.26-2.82,2.83-.17.09-.31.13-.42.13-.13,0-.19-.04-.19-.13,0-.06.02-.13.06-.19,1.17-1.63,2-3.35,2.51-5.15l2.02.33c-.24.55-.49,1.06-.75,1.53h5.49c.21,0,.32.08.32.25Z"/>
      <path class="cls-2" d="m267.23,65.06c-.11.22-.34.87-.68,1.93-.57,1.81-1.44,3.24-2.6,4.29-1.22,1.11-2.58,1.84-4.08,2.2-.38.09-.61.13-.69.13-.28,0-.42-.06-.42-.17,0-.05.09-.12.26-.23,3.31-1.86,5.22-4.46,5.74-7.79h-3.81c-.91,1.43-1.91,2.46-3.02,3.08-.14.07-.27.11-.41.11s-.2-.04-.2-.11c0-.09.02-.16.06-.2.68-.88,1.22-1.71,1.62-2.52.38-.78.73-1.72,1.04-2.82l2.02.33c-.21.52-.46,1.01-.73,1.47h5.52c.25,0,.37.1.37.29Zm-4.6,3.52c-.59.33-1.11.87-1.57,1.6-.19-.37-.42-.68-.68-.92-.19-.19-.5-.42-.93-.68.68-.36,1.22-.89,1.61-1.6.29.56.82,1.09,1.57,1.6Z"/>
      <path class="cls-2" d="m281.8,68.28h-9.71v-.68h9.71v.68Z"/>
      <path class="cls-2" d="m296.91,65.17h-1.8v7.49c0,.46-.26.69-.79.69-.48,0-.92-.04-1.34-.12-1.6-.26-2.82-.8-3.65-1.61-.18.16-.37.27-.55.33-.5.26-1.33.39-2.49.39.91-.64,1.83-1.8,2.76-3.5.84-1.57,1.62-2.52,2.34-2.88.45-.24,1.04-.38,1.77-.43v-.38h-6.26v-.67h6.26v-1.61h1.96v1.61h1.8v.67Zm-3.76,7.46v-6.41c-.62.52-1.17,1.27-1.66,2.25-.63,1.26-1.2,2.16-1.72,2.71.44.45,1.03.8,1.77,1.05.54.2,1.08.33,1.61.39Z"/>
      <path class="cls-2" d="m305.11,64.94c-.76.35-1.42.95-1.99,1.79-.4-.75-1.06-1.34-1.99-1.79.82-.38,1.48-.99,1.99-1.83.42.73,1.09,1.34,1.99,1.83Zm6.28-.38c-.84,2.31-2.05,4.2-3.61,5.67-1.44,1.35-3.24,2.37-5.4,3.07l-1.01-1.86c4.1-1.3,7.31-3.65,9.62-7.07l.42.2Z"/>
      <path class="cls-2" d="m318.87,69.64h-1.97v-6.32h1.97v6.32Zm6.05-2.42c0,3.01-1.3,4.99-3.9,5.95-.64.25-1.21.37-1.69.37-.18-.03-.27-.1-.27-.21,0-.08.12-.17.37-.27,2.35-1.07,3.53-3.02,3.53-5.83v-4.18h1.97v4.18Z"/>
      <path class="cls-2" d="m340.43,68.28h-9.71v-.68h9.71v.68Z"/>
      <path class="cls-2" d="m354.71,63.51c-.47.33-1,.91-1.6,1.74-.65.88-1.16,1.47-1.54,1.78.07.16.11.28.11.36v6h-1.97v-5.42c-2.08.68-3.28,1.01-3.61,1.01-.12,0-.23-.02-.33-.05,0-.12.1-.25.26-.38.19-.14.74-.45,1.65-.94,1.01-.53,1.82-1.05,2.42-1.55.76-.62,1.39-1.34,1.87-2.15h-1.47v-.64h3.98c.15,0,.23.08.23.24Z"/>
      <path class="cls-2" d="m370.31,70.2l-1.28,2.11c-2.08-1.22-4.12-3.06-6.14-5.54-.55.84-1.28,1.92-2.18,3.23l-1.23-1.36c.34-.22.8-.64,1.36-1.26.42-.48.85-.96,1.28-1.43.25-.27.52-.41.82-.41.22.03.9.53,2.03,1.49,1.55,1.33,3.33,2.38,5.34,3.16Zm-2.85-4.95c-.41.21-.72.53-.94.97-.17-.41-.48-.73-.95-.97.4-.21.72-.53.95-.95.19.37.51.69.94.95Zm1.78-.48c-.33.17-.62.52-.87,1.03-.16-.45-.46-.8-.89-1.03.37-.23.67-.58.89-1.05.1.21.23.41.39.57l.48.48Z"/>
      <path class="cls-2" d="m378.41,64.94c-.76.35-1.42.95-1.99,1.79-.4-.75-1.06-1.34-1.99-1.79.82-.38,1.48-.99,1.99-1.83.42.73,1.09,1.34,1.99,1.83Zm6.28-.38c-.84,2.31-2.05,4.2-3.61,5.67-1.44,1.35-3.24,2.37-5.4,3.07l-1.01-1.86c4.1-1.3,7.31-3.65,9.62-7.07l.42.2Z"/>
      <path class="cls-2" d="m399.43,69.45l-1.36,1.42c-1.6-1.88-3.44-3.37-5.52-4.47v6.97h-1.96v-10.46h1.96v2.58c2.74.79,5.03,2.11,6.88,3.97Z"/>
    </g>
    <g>
      <path class="cls-3" d="m165.9,72.08l-.93.29-.86-2.05h-3.96l-.94,2.05-1.71-.56,3.66-7.73h1.4l3.34,8Zm-2.06-2.45l-1.62-3.83c-.4.84-.99,2.11-1.77,3.83h3.39Z"/>
      <path class="cls-3" d="m178.48,72.22h-1.72v-4.07h-3.4v4.07h-1.72v-8.15h1.72v3.44h3.4v-3.44h1.72v8.15Z"/>
      <path class="cls-3" d="m191.55,70c0,.87-.38,1.5-1.13,1.9-.59.31-1.36.47-2.31.47-1.5,0-2.76-.53-3.76-1.59l.45-.45c.93.76,1.98,1.13,3.16,1.13.49,0,.9-.1,1.23-.29.41-.22.62-.56.62-1.01,0-.5-.46-.88-1.38-1.13-1.61-.45-2.46-.7-2.54-.74-.92-.43-1.38-1.1-1.38-2.02,0-.87.43-1.5,1.28-1.88.63-.29,1.43-.44,2.4-.44,1.24,0,2.31.4,3.2,1.2l-.5.51c-.35-.29-.78-.52-1.28-.7-.49-.18-.96-.27-1.4-.27-.51,0-.94.08-1.3.25-.45.23-.68.57-.68,1.03,0,.51.33.85.98,1.04.63.16,1.26.31,1.9.47.77.21,1.34.48,1.72.81.49.43.74,1.01.74,1.73Z"/>
      <path class="cls-3" d="m208.68,68.77l-3.56.42,1.13,3.84-1.84.55c-.4-1.34-.81-2.72-1.24-4.15l-4.5.55-.07-.73,4.37-.54c-.25-.88-.52-1.77-.81-2.67l-3.23.47-.1-.64,3.15-.43c-.21-.66-.41-1.32-.61-1.99l1.88-.48c.24.76.46,1.48.66,2.17l3.46-.49.1.66-3.36.48.79,2.72,3.71-.45.07.73Z"/>
      <path class="cls-3" d="m222.91,66.39c0,.51-.37,1.26-1.1,2.24-.76,1.01-1.39,1.52-1.88,1.52-.1,0-.14-.07-.14-.2,0-.06.04-.16.11-.31.45-.81.77-1.73.95-2.74l-3.22.61c.66,2.11,1.24,3.94,1.75,5.5l-1.68.47-1.8-5.62-2.06.39-.13-.64,2-.38-.78-2.31,1.75-.38c.26.84.51,1.62.74,2.36l4.35-.84c.36-.06.55-.1.58-.1.12,0,.24.04.37.13.12.1.18.2.18.31Z"/>
      <path class="cls-3" d="m237.95,66.48c0,.14-.19.62-.56,1.44-1.38,3.03-3.6,4.93-6.67,5.69-.16.04-.29.06-.38.06-.19,0-.29-.06-.29-.19,0-.06.08-.15.25-.26,1.37-.89,2.46-1.83,3.28-2.83.92-1.11,1.59-2.38,2-3.83h-7.61v-.66h9.45c.35,0,.52.19.52.57Zm-.72-2.15c-.44.25-.91.38-1.42.38-.41,0-.96-.17-1.66-.51-.71-.33-1.28-.5-1.72-.5-1.12,0-2.16.34-3.11,1.01l-.43-.56c1.12-.75,2.33-1.12,3.61-1.12.57,0,1.23.17,1.97.5.75.33,1.19.5,1.34.5.29,0,.67-.11,1.15-.33l.27.63Z"/>
      <path class="cls-3" d="m252.44,65.15c-.11.25-.32.87-.62,1.85-.52,1.72-1.31,3.07-2.36,4.07-.56.52-1.25,1.01-2.08,1.44-.95.51-1.75.76-2.39.76-.18,0-.27-.06-.27-.17,0-.05.08-.12.24-.2,2.9-1.7,4.58-4.15,5.05-7.35h-3.78c-.85,1.32-1.79,2.26-2.82,2.83-.17.09-.31.13-.42.13-.13,0-.19-.04-.19-.13,0-.06.02-.13.06-.19,1.17-1.63,2-3.35,2.51-5.15l2.02.33c-.24.55-.49,1.06-.75,1.53h5.49c.21,0,.32.08.32.25Z"/>
      <path class="cls-3" d="m267.23,65.06c-.11.22-.34.87-.68,1.93-.57,1.81-1.44,3.24-2.6,4.29-1.22,1.11-2.58,1.84-4.08,2.2-.38.09-.61.13-.69.13-.28,0-.42-.06-.42-.17,0-.05.09-.12.26-.23,3.31-1.86,5.22-4.46,5.74-7.79h-3.81c-.91,1.43-1.91,2.46-3.02,3.08-.14.07-.27.11-.41.11s-.2-.04-.2-.11c0-.09.02-.16.06-.2.68-.88,1.22-1.71,1.62-2.52.38-.78.73-1.72,1.04-2.82l2.02.33c-.21.52-.46,1.01-.73,1.47h5.52c.25,0,.37.1.37.29Zm-4.6,3.52c-.59.33-1.11.87-1.57,1.6-.19-.37-.42-.68-.68-.92-.19-.19-.5-.42-.93-.68.68-.36,1.22-.89,1.61-1.6.29.56.82,1.09,1.57,1.6Z"/>
      <path class="cls-3" d="m281.8,68.28h-9.71v-.68h9.71v.68Z"/>
      <path class="cls-3" d="m296.91,65.17h-1.8v7.49c0,.46-.26.69-.79.69-.48,0-.92-.04-1.34-.12-1.6-.26-2.82-.8-3.65-1.61-.18.16-.37.27-.55.33-.5.26-1.33.39-2.49.39.91-.64,1.83-1.8,2.76-3.5.84-1.57,1.62-2.52,2.34-2.88.45-.24,1.04-.38,1.77-.43v-.38h-6.26v-.67h6.26v-1.61h1.96v1.61h1.8v.67Zm-3.76,7.46v-6.41c-.62.52-1.17,1.27-1.66,2.25-.63,1.26-1.2,2.16-1.72,2.71.44.45,1.03.8,1.77,1.05.54.2,1.08.33,1.61.39Z"/>
      <path class="cls-3" d="m305.11,64.94c-.76.35-1.42.95-1.99,1.79-.4-.75-1.06-1.34-1.99-1.79.82-.38,1.48-.99,1.99-1.83.42.73,1.09,1.34,1.99,1.83Zm6.28-.38c-.84,2.31-2.05,4.2-3.61,5.67-1.44,1.35-3.24,2.37-5.4,3.07l-1.01-1.86c4.1-1.3,7.31-3.65,9.62-7.07l.42.2Z"/>
      <path class="cls-3" d="m318.87,69.64h-1.97v-6.32h1.97v6.32Zm6.05-2.42c0,3.01-1.3,4.99-3.9,5.95-.64.25-1.21.37-1.69.37-.18-.03-.27-.1-.27-.21,0-.08.12-.17.37-.27,2.35-1.07,3.53-3.02,3.53-5.83v-4.18h1.97v4.18Z"/>
      <path class="cls-3" d="m340.43,68.28h-9.71v-.68h9.71v.68Z"/>
      <path class="cls-3" d="m354.71,63.51c-.47.33-1,.91-1.6,1.74-.65.88-1.16,1.47-1.54,1.78.07.16.11.28.11.36v6h-1.97v-5.42c-2.08.68-3.28,1.01-3.61,1.01-.12,0-.23-.02-.33-.05,0-.12.1-.25.26-.38.19-.14.74-.45,1.65-.94,1.01-.53,1.82-1.05,2.42-1.55.76-.62,1.39-1.34,1.87-2.15h-1.47v-.64h3.98c.15,0,.23.08.23.24Z"/>
      <path class="cls-3" d="m370.31,70.2l-1.28,2.11c-2.08-1.22-4.12-3.06-6.14-5.54-.55.84-1.28,1.92-2.18,3.23l-1.23-1.36c.34-.22.8-.64,1.36-1.26.42-.48.85-.96,1.28-1.43.25-.27.52-.41.82-.41.22.03.9.53,2.03,1.49,1.55,1.33,3.33,2.38,5.34,3.16Zm-2.85-4.95c-.41.21-.72.53-.94.97-.17-.41-.48-.73-.95-.97.4-.21.72-.53.95-.95.19.37.51.69.94.95Zm1.78-.48c-.33.17-.62.52-.87,1.03-.16-.45-.46-.8-.89-1.03.37-.23.67-.58.89-1.05.1.21.23.41.39.57l.48.48Z"/>
      <path class="cls-3" d="m378.41,64.94c-.76.35-1.42.95-1.99,1.79-.4-.75-1.06-1.34-1.99-1.79.82-.38,1.48-.99,1.99-1.83.42.73,1.09,1.34,1.99,1.83Zm6.28-.38c-.84,2.31-2.05,4.2-3.61,5.67-1.44,1.35-3.24,2.37-5.4,3.07l-1.01-1.86c4.1-1.3,7.31-3.65,9.62-7.07l.42.2Z"/>
      <path class="cls-3" d="m399.43,69.45l-1.36,1.42c-1.6-1.88-3.44-3.37-5.52-4.47v6.97h-1.96v-10.46h1.96v2.58c2.74.79,5.03,2.11,6.88,3.97Z"/>
    </g>
    <g>
      <path class="cls-1" d="m165.9,72.08l-.93.29-.86-2.05h-3.96l-.94,2.05-1.71-.56,3.66-7.73h1.4l3.34,8Zm-2.06-2.45l-1.62-3.83c-.4.84-.99,2.11-1.77,3.83h3.39Z"/>
      <path class="cls-1" d="m178.48,72.22h-1.72v-4.07h-3.4v4.07h-1.72v-8.15h1.72v3.44h3.4v-3.44h1.72v8.15Z"/>
      <path class="cls-1" d="m191.55,70c0,.87-.38,1.5-1.13,1.9-.59.31-1.36.47-2.31.47-1.5,0-2.76-.53-3.76-1.59l.45-.45c.93.76,1.98,1.13,3.16,1.13.49,0,.9-.1,1.23-.29.41-.22.62-.56.62-1.01,0-.5-.46-.88-1.38-1.13-1.61-.45-2.46-.7-2.54-.74-.92-.43-1.38-1.1-1.38-2.02,0-.87.43-1.5,1.28-1.88.63-.29,1.43-.44,2.4-.44,1.24,0,2.31.4,3.2,1.2l-.5.51c-.35-.29-.78-.52-1.28-.7-.49-.18-.96-.27-1.4-.27-.51,0-.94.08-1.3.25-.45.23-.68.57-.68,1.03,0,.51.33.85.98,1.04.63.16,1.26.31,1.9.47.77.21,1.34.48,1.72.81.49.43.74,1.01.74,1.73Z"/>
      <path class="cls-1" d="m208.68,68.77l-3.56.42,1.13,3.84-1.84.55c-.4-1.34-.81-2.72-1.24-4.15l-4.5.55-.07-.73,4.37-.54c-.25-.88-.52-1.77-.81-2.67l-3.23.47-.1-.64,3.15-.43c-.21-.66-.41-1.32-.61-1.99l1.88-.48c.24.76.46,1.48.66,2.17l3.46-.49.1.66-3.36.48.79,2.72,3.71-.45.07.73Z"/>
      <path class="cls-1" d="m222.91,66.39c0,.51-.37,1.26-1.1,2.24-.76,1.01-1.39,1.52-1.88,1.52-.1,0-.14-.07-.14-.2,0-.06.04-.16.11-.31.45-.81.77-1.73.95-2.74l-3.22.61c.66,2.11,1.24,3.94,1.75,5.5l-1.68.47-1.8-5.62-2.06.39-.13-.64,2-.38-.78-2.31,1.75-.38c.26.84.51,1.62.74,2.36l4.35-.84c.36-.06.55-.1.58-.1.12,0,.24.04.37.13.12.1.18.2.18.31Z"/>
      <path class="cls-1" d="m237.95,66.48c0,.14-.19.62-.56,1.44-1.38,3.03-3.6,4.93-6.67,5.69-.16.04-.29.06-.38.06-.19,0-.29-.06-.29-.19,0-.06.08-.15.25-.26,1.37-.89,2.46-1.83,3.28-2.83.92-1.11,1.59-2.38,2-3.83h-7.61v-.66h9.45c.35,0,.52.19.52.57Zm-.72-2.15c-.44.25-.91.38-1.42.38-.41,0-.96-.17-1.66-.51-.71-.33-1.28-.5-1.72-.5-1.12,0-2.16.34-3.11,1.01l-.43-.56c1.12-.75,2.33-1.12,3.61-1.12.57,0,1.23.17,1.97.5.75.33,1.19.5,1.34.5.29,0,.67-.11,1.15-.33l.27.63Z"/>
      <path class="cls-1" d="m252.44,65.15c-.11.25-.32.87-.62,1.85-.52,1.72-1.31,3.07-2.36,4.07-.56.52-1.25,1.01-2.08,1.44-.95.51-1.75.76-2.39.76-.18,0-.27-.06-.27-.17,0-.05.08-.12.24-.2,2.9-1.7,4.58-4.15,5.05-7.35h-3.78c-.85,1.32-1.79,2.26-2.82,2.83-.17.09-.31.13-.42.13-.13,0-.19-.04-.19-.13,0-.06.02-.13.06-.19,1.17-1.63,2-3.35,2.51-5.15l2.02.33c-.24.55-.49,1.06-.75,1.53h5.49c.21,0,.32.08.32.25Z"/>
      <path class="cls-1" d="m267.23,65.06c-.11.22-.34.87-.68,1.93-.57,1.81-1.44,3.24-2.6,4.29-1.22,1.11-2.58,1.84-4.08,2.2-.38.09-.61.13-.69.13-.28,0-.42-.06-.42-.17,0-.05.09-.12.26-.23,3.31-1.86,5.22-4.46,5.74-7.79h-3.81c-.91,1.43-1.91,2.46-3.02,3.08-.14.07-.27.11-.41.11s-.2-.04-.2-.11c0-.09.02-.16.06-.2.68-.88,1.22-1.71,1.62-2.52.38-.78.73-1.72,1.04-2.82l2.02.33c-.21.52-.46,1.01-.73,1.47h5.52c.25,0,.37.1.37.29Zm-4.6,3.52c-.59.33-1.11.87-1.57,1.6-.19-.37-.42-.68-.68-.92-.19-.19-.5-.42-.93-.68.68-.36,1.22-.89,1.61-1.6.29.56.82,1.09,1.57,1.6Z"/>
      <path class="cls-1" d="m281.8,68.28h-9.71v-.68h9.71v.68Z"/>
      <path class="cls-1" d="m296.91,65.17h-1.8v7.49c0,.46-.26.69-.79.69-.48,0-.92-.04-1.34-.12-1.6-.26-2.82-.8-3.65-1.61-.18.16-.37.27-.55.33-.5.26-1.33.39-2.49.39.91-.64,1.83-1.8,2.76-3.5.84-1.57,1.62-2.52,2.34-2.88.45-.24,1.04-.38,1.77-.43v-.38h-6.26v-.67h6.26v-1.61h1.96v1.61h1.8v.67Zm-3.76,7.46v-6.41c-.62.52-1.17,1.27-1.66,2.25-.63,1.26-1.2,2.16-1.72,2.71.44.45,1.03.8,1.77,1.05.54.2,1.08.33,1.61.39Z"/>
      <path class="cls-1" d="m305.11,64.94c-.76.35-1.42.95-1.99,1.79-.4-.75-1.06-1.34-1.99-1.79.82-.38,1.48-.99,1.99-1.83.42.73,1.09,1.34,1.99,1.83Zm6.28-.38c-.84,2.31-2.05,4.2-3.61,5.67-1.44,1.35-3.24,2.37-5.4,3.07l-1.01-1.86c4.1-1.3,7.31-3.65,9.62-7.07l.42.2Z"/>
      <path class="cls-1" d="m318.87,69.64h-1.97v-6.32h1.97v6.32Zm6.05-2.42c0,3.01-1.3,4.99-3.9,5.95-.64.25-1.21.37-1.69.37-.18-.03-.27-.1-.27-.21,0-.08.12-.17.37-.27,2.35-1.07,3.53-3.02,3.53-5.83v-4.18h1.97v4.18Z"/>
      <path class="cls-1" d="m340.43,68.28h-9.71v-.68h9.71v.68Z"/>
      <path class="cls-1" d="m354.71,63.51c-.47.33-1,.91-1.6,1.74-.65.88-1.16,1.47-1.54,1.78.07.16.11.28.11.36v6h-1.97v-5.42c-2.08.68-3.28,1.01-3.61,1.01-.12,0-.23-.02-.33-.05,0-.12.1-.25.26-.38.19-.14.74-.45,1.65-.94,1.01-.53,1.82-1.05,2.42-1.55.76-.62,1.39-1.34,1.87-2.15h-1.47v-.64h3.98c.15,0,.23.08.23.24Z"/>
      <path class="cls-1" d="m370.31,70.2l-1.28,2.11c-2.08-1.22-4.12-3.06-6.14-5.54-.55.84-1.28,1.92-2.18,3.23l-1.23-1.36c.34-.22.8-.64,1.36-1.26.42-.48.85-.96,1.28-1.43.25-.27.52-.41.82-.41.22.03.9.53,2.03,1.49,1.55,1.33,3.33,2.38,5.34,3.16Zm-2.85-4.95c-.41.21-.72.53-.94.97-.17-.41-.48-.73-.95-.97.4-.21.72-.53.95-.95.19.37.51.69.94.95Zm1.78-.48c-.33.17-.62.52-.87,1.03-.16-.45-.46-.8-.89-1.03.37-.23.67-.58.89-1.05.1.21.23.41.39.57l.48.48Z"/>
      <path class="cls-1" d="m378.41,64.94c-.76.35-1.42.95-1.99,1.79-.4-.75-1.06-1.34-1.99-1.79.82-.38,1.48-.99,1.99-1.83.42.73,1.09,1.34,1.99,1.83Zm6.28-.38c-.84,2.31-2.05,4.2-3.61,5.67-1.44,1.35-3.24,2.37-5.4,3.07l-1.01-1.86c4.1-1.3,7.31-3.65,9.62-7.07l.42.2Z"/>
      <path class="cls-1" d="m399.43,69.45l-1.36,1.42c-1.6-1.88-3.44-3.37-5.52-4.47v6.97h-1.96v-10.46h1.96v2.58c2.74.79,5.03,2.11,6.88,3.97Z"/>
    </g>
  </g>
</svg>